<svg width="26" height="24" viewBox="0 0 26 24" fill="none" xmlns="http://www.w3.org/2000/svg">
<path d="M25 0H1C0.447 0 0 0.448 0 1C0 1.552 0.447 2 1 2H25C25.553 2 26 1.552 26 1C26 0.448 25.553 0 25 0Z" fill="#1D669B"/>
<path d="M25 11H1C0.447 11 0 11.448 0 12C0 12.552 0.447 13 1 13H25C25.553 13 26 12.552 26 12C26 11.448 25.553 11 25 11Z" fill="#1D669B"/>
<path d="M25 22H1C0.447 22 0 22.448 0 23C0 23.552 0.447 24 1 24H25C25.553 24 26 23.552 26 23C26 22.448 25.553 22 25 22Z" fill="#1D669B"/>
</svg>
