<svg width="135" height="135" viewBox="0 0 135 135" fill="none" xmlns="http://www.w3.org/2000/svg">
<path d="M67.5 0C30.2805 0 0 30.2805 0 67.5C0 104.719 30.2805 135 67.5 135C104.719 135 135 104.719 135 67.5C135 30.2805 104.719 0 67.5 0ZM102.517 69.3585L53.0168 103.108C52.6365 103.367 52.1932 103.5 51.75 103.5C51.39 103.5 51.0278 103.414 50.6993 103.239C49.9613 102.85 49.5 102.085 49.5 101.25V33.75C49.5 32.9152 49.9613 32.1502 50.6993 31.761C51.4373 31.3695 52.3282 31.4235 53.019 31.8915L102.519 65.6415C103.131 66.06 103.5 66.7552 103.5 67.5C103.5 68.2448 103.131 68.94 102.517 69.3585Z" fill="white"/>
</svg>
