<svg width="112" height="103" viewBox="0 0 112 103" fill="none" xmlns="http://www.w3.org/2000/svg">
<path d="M19.1033 39.1785C18.4528 42.8995 18.2576 46.5882 20.1765 50.0503C22.0629 58.6895 26.9414 66.0667 30.3564 74.0911C33.0883 80.4653 36.1455 86.6778 39.1377 92.9549C40.1459 95.0581 41.8046 96.4818 44.3739 96.1906C46.8782 95.8994 48.2767 94.411 48.7971 92.0166C49.3825 89.3634 50.0005 86.7425 50.6184 84.0893C51.6592 80.5948 52.765 77.1326 53.7407 73.6381C54.9115 69.4318 57.6435 66.908 62.0016 67.0051C66.0996 67.1021 68.7014 69.5612 69.7422 73.5734C70.3927 76.0325 71.2057 78.4592 71.9538 80.886C72.0839 81.436 72.214 81.9861 72.3441 82.5038C72.6693 83.4098 72.962 84.2834 73.2873 85.1894C72.962 87.6485 74.1979 89.7516 74.6858 92.0489C75.1736 94.3463 76.5396 96.0288 79.1089 96.1906C81.5157 96.3523 83.402 95.5111 84.085 92.9873C90.3946 79.527 96.7366 66.1314 102.949 52.6388C104.25 49.8562 105.095 46.847 104.705 43.6761C105.713 31.8336 100.282 23.2592 90.4271 17.435C83.337 13.261 75.7265 12.0639 66.8151 15.9143C72.6693 20.606 77.6454 24.5858 82.6215 28.5656C81.7433 33.5162 80.3123 34.3574 76.3444 31.7689C72.9945 29.601 69.8398 27.1096 66.62 24.7476C54.3912 11.7727 44.439 10.1548 30.9743 18.8587C28.8928 17.9204 27.5268 16.2378 25.9006 14.1023C36.3407 7.17803 47.1384 4.33067 59.0745 9.7989C60.6031 10.4784 61.7089 11.3197 63.5627 10.3813C77.1575 3.58647 89.4514 6.95154 100.087 16.3349C110.949 25.8801 114.69 38.5314 110.039 52.1535C104.705 67.8463 96.7041 82.5038 89.4514 97.4201C87.3699 101.724 83.0117 103.374 78.2633 102.791C73.4824 102.209 70.0999 99.5233 68.7014 94.8963C66.7826 88.425 65.1239 81.889 63.3026 75.3854C63.1399 74.7706 62.5871 74.2529 62.1642 73.6705C60.2128 74.3176 60.1153 75.7737 59.7575 77.165C58.2289 82.9891 56.7654 88.8133 55.0741 94.6051C53.7407 99.2321 50.4558 102.079 45.7074 102.791C40.6988 103.535 36.2431 101.788 34.064 97.2583C27.039 82.6332 20.0139 67.9758 13.8019 53.0271C10.1593 44.2585 11.6879 34.1309 15.8509 27.1743C17.8348 28.145 19.3309 29.6657 20.5668 31.4777C19.8513 33.9368 18.3552 36.3635 19.1033 39.1785Z" fill="#69BCB7"/>
<path d="M47.5938 34.3574C51.3665 32.4807 53.0578 27.7243 56.5378 30.8953C60.0828 34.0662 55.1718 36.0723 54.2611 39.1461C57.2858 39.1461 60.1153 39.2108 62.9449 39.1138C65.3191 39.0491 67.5957 39.2756 67.7583 42.22C67.921 45.1321 65.8069 45.7145 63.3351 45.7468C60.6357 45.7792 57.9037 45.9733 54.7815 46.1028C55.1393 49.5326 61.5464 51.3769 57.2533 54.9684C53.9684 57.7187 51.9845 53.1888 49.1224 51.9269C49.1224 55.6156 49.1224 58.8188 49.1224 62.0221C49.1224 64.0606 48.4394 65.6784 46.0977 65.8078C43.7886 65.9373 42.7803 64.4489 42.5852 62.4104C42.2925 59.2071 42.1624 55.9715 41.9673 52.5417C38.8125 53.3183 37.2188 59.4983 33.3486 55.3244C30.1287 51.8622 35.3325 50.2444 36.113 47.3323C32.8932 47.3323 29.771 47.3647 26.6162 47.3323C24.4697 47.3 22.3882 46.847 22.2581 44.2261C22.128 41.6052 24.1119 40.9257 26.291 40.764C28.8603 40.5698 31.4297 40.408 33.999 40.2463C34.6495 38.2402 32.7957 37.7548 31.9175 36.8812C22.4207 27.7567 12.8263 18.6969 3.26439 9.60472C0.955225 7.40448 -1.77674 5.04246 1.54065 1.87153C4.53281 -1.00819 6.84197 1.54796 8.98851 3.58642C19.4285 13.4875 29.8685 23.4209 40.959 33.9691C40.959 30.054 40.959 27.0448 40.959 24.0357C40.959 22.1267 42.0323 20.8 43.8536 20.6059C46.0327 20.3794 47.3662 21.8031 47.4962 23.8415C47.7239 27.0125 47.5938 30.2481 47.5938 34.3574Z" fill="#69BCB7"/>
<path d="M50.5859 84.0245C49.968 86.6777 49.35 89.2986 48.7646 91.9518C48.2443 94.3462 46.8783 95.867 44.3415 96.1258C41.7721 96.417 40.1134 94.9934 39.1052 92.8902C36.113 86.6454 33.0558 80.4006 30.3239 74.0264C26.9089 66.0344 22.0304 58.6248 20.144 49.9856C22.811 50.5033 25.4779 51.021 28.47 51.6034C28.6977 55.648 29.9661 59.013 34.4869 60.2426C36.7635 60.8573 36.4708 63.0576 36.4708 64.8695C36.4383 69.4965 37.3814 73.9293 38.8775 78.2651C41.4143 85.8041 43.073 86.516 50.5859 84.0245Z" fill="#F3F3F3"/>
<path d="M82.589 28.5009C77.6129 24.521 72.6694 20.5412 66.7827 15.8495C75.6615 11.9991 83.3045 13.1963 90.3946 17.3702C100.249 23.1944 105.681 31.7689 104.672 43.6113C100.249 38.8873 96.8668 33.0955 90.8174 30.054C88.3457 28.7921 85.9064 25.9447 82.589 28.5009Z" fill="#F3F3F3"/>
<path d="M30.9418 18.7939C44.4065 10.0576 54.3587 11.7078 66.5875 24.6828C62.1318 25.4917 57.9038 23.2591 53.4806 23.7444C52.3097 23.8739 51.4641 23.3561 50.9763 22.0942C49.6753 18.6968 47.3336 16.7231 43.3983 17.1113C39.1703 17.5643 37.9994 20.8 36.8611 24.7475C34.5845 22.5796 31.9826 21.5442 30.9418 18.7939Z" fill="#F3F3F3"/>
<path d="M84.0526 92.9227C83.3371 95.4788 81.4833 96.2877 79.0765 96.126C76.5397 95.9642 75.1737 94.2816 74.6534 91.9843C74.1655 89.7194 72.8971 87.5838 73.2548 85.1248C76.4096 85.5777 76.6698 88.9752 78.8164 90.4959C80.4425 91.6608 81.9711 92.8256 84.0526 92.9227Z" fill="#F3F3F3"/>
<path d="M19.1033 39.1785C18.3553 36.3635 19.8513 33.9368 20.5018 31.3806C22.3556 32.9337 24.242 34.4868 26.4211 36.2988C23.6241 37.3666 21.3799 38.2725 19.1033 39.1785Z" fill="#F3F3F3"/>
<path d="M72.3116 82.4391C72.1815 81.8891 72.0514 81.339 71.9213 80.8213C72.0514 81.3714 72.1815 81.8891 72.3116 82.4391Z" fill="#C0C6CC"/>
</svg>
