<svg width="200" height="176" viewBox="0 0 200 176" fill="none" xmlns="http://www.w3.org/2000/svg">
<path d="M63.0257 116.639C61.5604 117.92 59.8668 121.093 58.8202 118.13C56.7459 112.242 52.3882 109.393 47.2502 107.5C47.5547 106.391 47.5928 105.799 47.764 105.741C54.3482 103.715 56.118 99.9678 54.5766 92.8559C52.6165 83.8513 55.9848 75.4394 60.3235 69.5511C56.6318 58.2141 51.0181 49.5919 38.6108 46.7051C50.0476 43.3404 57.0314 36.5726 60.3425 25.0062C63.6156 36.7255 70.98 43.1109 81.941 46.7434C72.921 50.5287 64.6242 54.0464 63.0447 64.4848C64.7383 65.2878 65.7469 63.6054 67.079 62.6686C77.412 55.4994 88.2778 52.3832 100.228 58.5391C101.789 59.3421 102.931 59.0362 104.377 58.2524C107.517 56.5509 110.847 55.27 114.539 55.4229C117.774 55.5567 118.991 53.167 120.247 50.7964C121.237 48.9037 121.313 46.4375 123.311 45.2904C125.709 45.9404 125.728 47.9287 126.318 49.3816C127.041 51.1596 127.65 53.6067 129.248 54.0082C136.346 55.8626 137.926 62.8025 141.903 67.4099C150.752 77.6954 152.693 89.7779 147.593 102.243C142.112 115.606 135.699 128.587 129.553 141.683C127.345 146.386 123.444 148.891 118.192 148.317C112.75 147.724 109.572 144.455 108.24 139.064C106.66 132.621 104.757 126.274 102.341 119.946C98.744 125.643 97.8306 131.952 96.2512 137.974C94.7669 143.691 92.0266 147.667 85.9752 148.317C79.8668 148.967 76.2322 145.469 73.8344 140.211C70.3711 132.545 66.8126 124.879 63.0257 116.639ZM123.159 139.389C130.162 126.217 136.023 112.509 142.074 98.8972C143.368 95.9912 143.882 92.7985 143.254 89.5485C144.148 79.3204 138.059 69.1879 128.868 65.7275C126.851 67.9834 125.766 70.6599 125.347 73.6806C124.206 74.1776 123.083 74.2541 121.979 73.6041C118.896 63.4142 114.653 60.4701 107.726 64.0642C111.989 68.6908 117.108 72.1703 121.96 75.9365C121.503 81.0028 119.924 81.9395 115.89 79.2439C112.655 77.0836 109.61 74.6365 106.47 72.3232C101.541 67.1231 96.6318 61.9421 88.7155 61.7701C76.8792 61.5024 65.8611 69.207 62.0361 80.5248C58.2493 91.7088 61.3701 99.5854 71.7222 105.13C72.274 105.436 72.5595 106.219 72.8449 106.602C71.9315 109.393 68.392 108.227 67.5928 111.094C71.7602 120.099 76.0038 129.295 80.2474 138.491C81.294 140.785 82.9496 142.027 85.5566 141.779C87.9733 141.549 89.1532 140.058 89.667 137.802C90.2379 135.26 91.5128 132.87 91.3416 130.174C92.4643 126.618 93.6441 123.081 94.6717 119.487C95.7374 115.778 98.2493 113.656 101.903 113.561C105.842 113.446 108.544 115.587 109.705 119.506C110.866 123.445 112.084 127.364 113.264 131.302C113.682 133.501 113.872 135.757 114.577 137.86C116.099 142.658 119.182 143.155 123.159 139.389ZM60.4948 63.5481C62.8164 54.2376 68.0114 49.439 77.0124 46.6669C67.9543 44.0286 63.0828 39.0579 60.3425 30.1298C57.7165 39.1918 52.5975 44.0095 43.8059 46.7051C52.8068 49.3625 57.6784 54.3332 60.4948 63.5481ZM123.692 69.2834C125.366 64.1789 128.849 61.7701 132.845 59.4377C128.24 57.87 125.595 54.792 123.616 50.5478C121.617 54.8111 118.915 57.9274 114.177 59.5524C118.706 61.6936 121.675 64.4275 123.692 69.2834ZM60.3996 114.574C61.6556 110.311 64.3958 108.686 67.3644 106.583C64.1865 104.786 61.922 102.549 59.9429 98.7825C58.4396 102.931 55.7754 104.671 52.883 106.716C56.0228 108.456 58.2493 110.559 60.3996 114.574Z" fill="#69BCB7"/>
<path d="M97.0504 42.8242C94.6907 37.6432 91.608 34.1829 86.1275 32.5005C90.5994 29.3652 95.1094 26.8607 96.7459 21.0106C99.3149 26.0769 102.303 30.0725 108.011 31.9079C102.95 34.3358 99.0675 37.2035 97.0504 42.8242ZM96.7079 26.7651C95.7374 29.4225 93.6822 30.4358 92.2359 32.0417C93.8725 33.6094 95.3948 35.0814 96.4985 36.1138C98.1731 34.7373 99.8287 33.3608 100.628 32.7108C99.4671 30.9902 98.2493 29.1166 96.7079 26.7651Z" fill="#69BCB7"/>
<path d="M121.96 73.6041C123.064 74.2541 124.186 74.1777 125.328 73.6806C125.48 76.7012 128.259 76.8351 130.067 77.5615C136.042 79.9131 138.344 86.1455 143.235 89.5676C143.863 92.8177 143.349 96.0104 142.055 98.9163C136.004 112.528 130.143 126.236 123.14 139.408C118.63 138.204 116.917 133.501 113.187 131.321C111.989 127.383 110.79 123.464 109.629 119.525C108.468 115.606 105.747 113.465 101.827 113.58C98.1541 113.675 95.6422 115.778 94.5956 119.506C93.568 123.101 92.3882 126.637 91.2654 130.193C84.0913 132.583 82.4738 131.627 79.9239 124.209C76.2702 113.522 76.8791 102.491 76.8982 91.4794C81.4082 93.6589 82.4928 98.1707 84.1674 102.281C84.6812 103.562 84.7573 105.493 86.7935 105.416C88.7155 105.34 88.9819 103.6 89.3625 102.205C91.4748 94.4618 96.4415 89.7206 104.091 87.6176C105.633 87.197 107.555 86.9294 107.231 83.9661C101.789 80.8498 93.9296 80.3145 91.5318 72.5335C96.4795 70.2967 101.503 73.4703 106.47 72.3232C109.61 74.6365 112.655 77.0836 115.89 79.2439C119.924 81.9396 121.503 81.0028 121.96 75.9365C121.941 75.1718 121.941 74.388 121.96 73.6041ZM117.583 101.306C115.737 107.08 111.665 109.947 106.546 112.719C112.826 113.752 114.824 118.608 118.135 124.286C119.924 117.728 123.825 114.689 128.639 111.955C122.988 110.292 120.114 106.372 117.583 101.306Z" fill="#FCFCFD"/>
<path d="M106.451 72.3233C101.484 73.4703 96.4605 70.2968 91.5128 72.5336C89.1151 70.3732 90.2759 65.8231 85.3663 64.179C83.6156 75.4777 76.0609 81.3852 65.2331 84.0808C68.8487 88.9368 74.2341 87.9044 76.8982 91.4603C76.8792 102.472 76.2702 113.522 79.9239 124.19C82.4738 131.627 84.0723 132.564 91.2655 130.174C91.4367 132.889 90.1808 135.26 89.5909 137.802C89.0771 140.039 87.8972 141.53 85.4805 141.779C82.8925 142.027 81.2369 140.804 80.1713 138.491C75.9467 129.295 71.6841 120.099 67.5166 111.094C68.3159 108.227 71.8744 109.393 72.7688 106.602C72.4833 106.219 72.1979 105.416 71.646 105.13C61.294 99.5855 58.1732 91.7089 61.96 80.5249C65.785 69.207 76.803 61.5216 88.6394 61.7701C96.6127 61.9613 101.522 67.1232 106.451 72.3233Z" fill="#F3F3F3"/>
<path d="M60.4948 63.5481C57.6784 54.3332 52.7878 49.3626 43.8059 46.7052C52.5975 44.0095 57.7165 39.1918 60.3425 30.1299C63.0828 39.058 67.9543 44.0095 77.0124 46.6669C68.0305 49.439 62.8164 54.2376 60.4948 63.5481Z" fill="#FCFCFD"/>
<path d="M143.235 89.5677C138.344 86.1455 136.023 79.9322 130.067 77.5616C128.259 76.8542 125.48 76.7013 125.328 73.6806C125.747 70.6791 126.832 67.9835 128.849 65.7275C138.04 69.207 144.129 79.3204 143.235 89.5677Z" fill="#F3F3F3"/>
<path d="M123.692 69.2835C121.694 64.4275 118.706 61.6936 114.177 59.5524C118.915 57.9274 121.617 54.8112 123.616 50.5479C125.595 54.792 128.24 57.8509 132.845 59.4377C128.849 61.7892 125.366 64.1981 123.692 69.2835Z" fill="#FCFCFD"/>
<path d="M60.3996 114.574C58.2493 110.559 56.0228 108.456 52.8639 106.716C55.7564 104.652 58.4205 102.912 59.9239 98.7825C61.9029 102.549 64.1674 104.786 67.3454 106.583C64.3768 108.686 61.6555 110.311 60.3996 114.574Z" fill="#FCFCFD"/>
<path d="M121.96 73.6041C121.96 74.388 121.941 75.1718 121.941 75.9365C117.088 72.1703 111.97 68.6908 107.707 64.0643C114.615 60.4892 118.877 63.4143 121.96 73.6041Z" fill="#F3F3F3"/>
<path d="M113.187 131.321C116.917 133.501 118.63 138.204 123.14 139.408C119.182 143.155 116.08 142.677 114.5 137.879C113.815 135.776 113.606 133.501 113.187 131.321Z" fill="#F3F3F3"/>
<path d="M96.7079 26.7651C98.2493 29.1358 99.4862 30.9902 100.609 32.7299C99.8097 33.38 98.1541 34.7564 96.4795 36.1329C95.3948 35.0815 93.8535 33.6094 92.2169 32.0608C93.6822 30.4358 95.7374 29.4034 96.7079 26.7651Z" fill="#FCFCFD"/>
<path d="M76.8982 91.4795C74.234 87.9044 68.8297 88.9368 65.2331 84.0999C76.0799 81.4043 83.6156 75.4777 85.3663 64.1981C90.2759 65.8423 89.1151 70.3923 91.5128 72.5527C93.9105 80.3337 101.77 80.869 107.212 83.9852C107.536 86.9485 105.614 87.2162 104.072 87.6367C96.4224 89.7397 91.4557 94.481 89.3435 102.224C88.9629 103.619 88.6965 105.34 86.7745 105.436C84.7383 105.512 84.6812 103.6 84.1484 102.3C82.4928 98.1707 81.4082 93.6589 76.8982 91.4795ZM86.6793 101.593C89.3054 93.0089 94.1579 87.7897 103.349 85.0367C94.1579 82.3411 89.2673 77.1601 86.6222 68.2703C84.3007 77.5807 78.9914 82.1308 70.3711 85.247C79.391 87.7897 84.1674 92.8177 86.6793 101.593Z" fill="#69BCB7"/>
<path d="M117.583 101.306C120.114 106.353 122.988 110.292 128.639 111.955C123.844 114.689 119.924 117.728 118.135 124.286C114.843 118.589 112.826 113.752 106.546 112.72C111.665 109.947 115.737 107.08 117.583 101.306ZM113.987 111.63C115.357 113.714 116.537 115.53 117.64 117.212C119.448 115.281 120.894 113.733 122.341 112.203C120.609 110.655 119.125 109.336 117.412 107.825C116.27 109.087 114.805 110.712 113.987 111.63Z" fill="#69BCB7"/>
<path d="M86.6793 101.593C84.1674 92.7986 79.391 87.7706 70.3711 85.247C78.9914 82.1499 84.3007 77.5807 86.6223 68.2703C89.2674 77.141 94.177 82.3411 103.349 85.0367C94.1579 87.8088 89.3054 93.028 86.6793 101.593Z" fill="#FCFCFD"/>
<path d="M113.987 111.63C114.805 110.712 116.27 109.087 117.412 107.825C119.125 109.336 120.609 110.655 122.341 112.203C120.894 113.752 119.467 115.281 117.64 117.212C116.537 115.53 115.338 113.714 113.987 111.63Z" fill="#FCFCFD"/>
</svg>
