<svg width="147" height="145" viewBox="0 0 147 145" fill="none" xmlns="http://www.w3.org/2000/svg">
<g filter="url(#filter0_f)">
<ellipse cx="73.5" cy="72.5" rx="53.5" ry="52.5" fill="#69BCB7"/>
</g>
<ellipse cx="73.5" cy="72.5" rx="49.3846" ry="48.4615" fill="white"/>
<path d="M51.4342 78.0687C54.8264 80.8525 57.6991 83.0554 60.3884 85.4686C63.149 87.9419 66.3069 88.7831 69.801 87.8118C72.2764 87.1309 74.2526 85.8091 73.6923 82.6048C73.3969 80.9626 74.2424 79.3705 75.0268 77.2076C75.6176 79.2804 76.0353 80.7924 76.4937 82.2944C77.4818 85.5688 79.9164 87.6916 83.1151 87.9219C86.4564 88.1522 89.0234 86.7904 90.5718 83.8665C91.8757 81.3932 92.9861 78.8298 94.2187 76.3264C94.565 75.6355 94.5956 74.5641 95.7773 74.6141C96.9182 74.6642 97.6822 75.3251 98.2221 76.2763C98.711 77.1275 98.6703 78.0587 98.6703 78.99C98.6703 84.7477 98.6907 90.5154 98.6703 96.2731C98.6601 99.7577 97.6211 100.829 94.1576 100.829C81.3935 100.849 68.6295 100.849 55.8655 100.819C52.5344 100.809 51.4648 99.7477 51.4444 96.4533C51.4037 90.5554 51.4342 84.6375 51.4342 78.0687Z" fill="#ED695E"/>
<path d="M84.9588 48.9898C85.3968 49.871 85.5802 50.7722 84.6837 51.4731C83.7669 52.1841 82.9011 51.7035 82.1371 51.1527C80.2627 49.8009 78.4291 48.399 76.5751 47.0172C74.3747 44.7041 72.1031 42.4711 68.609 42.2508C60.1948 41.7201 53.0233 48.7795 53.5937 57.0506C53.665 58.062 53.716 59.0833 53.7873 60.0947C50.1302 57.8517 49.7839 54.7375 51.0063 50.9725C54.0827 41.4998 64.7482 36.5732 73.9163 40.5385C74.6396 40.8489 75.1693 40.9691 75.9639 40.5686C82.5547 37.3042 88.5343 38.9264 93.75 43.3623C99.3323 48.1187 101.247 54.3971 98.8841 61.2662C96.2559 68.8964 92.3035 76.016 88.7788 83.2857C87.7092 85.4786 85.5496 86.3898 83.0641 86.0494C80.5887 85.7089 78.9588 84.267 78.2763 81.8838C77.4919 79.1201 76.7584 76.3364 76.0148 73.5627C75.8314 72.8818 75.9028 72.0407 74.6803 71.8003C73.1523 74.4939 73.2033 77.7583 71.8382 80.522C69.536 79.2603 68.7618 77.6481 69.9842 75.2349C70.5649 74.0934 70.6566 72.7316 71.0539 71.4999C71.6549 69.6475 72.8671 68.4659 74.9656 68.4859C77.0335 68.5059 78.2763 69.5874 78.8467 71.5099C79.4274 73.4726 80.0386 75.4152 80.6294 77.3678C80.8433 78.4392 81.0369 79.5207 81.2814 80.5821C81.5564 81.7336 82.188 82.6448 83.4511 82.8351C84.7041 83.0253 85.6209 82.5046 86.0488 81.283C89.1252 74.7443 92.2321 68.2155 95.278 61.6568C95.9809 60.1447 96.4902 58.5426 96.2152 56.8203C96.7347 51.353 94.2186 47.3176 89.7568 44.4437C86.171 42.1307 82.2491 41.3596 77.5938 43.2922C80.2118 45.4952 82.3102 47.5579 84.9588 48.9898Z" fill="#69BCB7"/>
<path d="M72.1846 83.7863C69.5564 86.8004 66.3985 87.0607 63.5462 85.0781C54.0419 78.4792 46.0657 70.1781 37.4375 62.598C35.9706 61.3063 35.0131 59.7642 35.0945 57.7515C35.2066 55.2882 36.4188 53.4257 38.7109 52.5646C41.3289 51.5733 43.682 52.2341 45.6277 54.3169C51.4953 60.6153 57.7907 66.5833 63.1387 73.2723C66.0318 76.8971 69.098 80.4018 72.1846 83.7863ZM62.8739 79.4706C62.283 79.8411 61.2949 80.1515 62.2627 81.0126C63.6684 82.2743 64.6566 84.1268 66.8569 84.307C67.8654 84.8377 68.5275 84.3671 69.4647 83.4659C67.8654 82.0039 66.3883 80.7022 64.9724 79.3404C64.1676 78.5894 63.4953 78.0887 62.8739 79.4706ZM42.48 57.9418C42.4494 56.9605 41.9502 56.3196 40.9621 56.2896C39.9435 56.2495 39.3934 56.9504 39.3628 57.8617C39.3322 58.6928 39.9231 59.3036 40.738 59.3737C41.6854 59.4538 42.3272 58.9231 42.48 57.9418Z" fill="#69BCB7"/>
<path d="M53.7771 60.0947C53.716 59.0834 53.6548 58.062 53.5835 57.0506C53.0233 48.7896 60.1846 41.7201 68.5988 42.2509C72.0929 42.4711 74.3646 44.6941 76.5649 47.0172C76.1778 48.2088 75.3629 47.4678 74.7109 47.3977C66.6226 46.5065 62.3747 50.1714 62.2932 58.1721C62.2525 61.6468 62.283 65.1214 62.283 69.0166C58.7584 66.2529 56.4664 62.9786 53.7771 60.0947Z" fill="#F3F3F3"/>
<path d="M84.9589 48.9898C82.3103 47.5679 80.222 45.4951 77.604 43.3022C82.2594 41.3696 86.1813 42.1406 89.767 44.4537C94.2288 47.3276 96.745 51.363 96.2255 56.8303C94.7687 55.2281 93.4241 53.5258 91.8451 52.0539C89.9504 50.2815 87.7602 48.8997 84.9589 48.9898Z" fill="#F3F3F3"/>
<path d="M86.0693 81.283C85.6414 82.5047 84.7246 83.0254 83.4716 82.8351C82.2085 82.6448 81.5667 81.7336 81.3019 80.5821C81.0472 79.5207 80.8638 78.4392 80.6499 77.3678C82.1881 77.5881 82.5039 79.0601 83.3901 79.9512C84.1236 80.6922 84.9895 81.1929 86.0693 81.283Z" fill="#F3F3F3"/>
<path d="M62.8739 79.4706C63.4953 78.0787 64.1676 78.5794 64.9724 79.3504C66.3883 80.7122 67.8654 82.014 69.4647 83.4759C68.5276 84.3671 67.8756 84.8478 66.8569 84.3171C66.1031 82.2443 63.75 81.4432 62.8739 79.4706Z" fill="#F3F3F3"/>
<path d="M42.48 57.9417C42.3272 58.923 41.6854 59.4537 40.738 59.3736C39.9231 59.3035 39.3323 58.6927 39.3628 57.8616C39.3934 56.9504 39.9333 56.2494 40.9622 56.2895C41.9503 56.3195 42.4494 56.9604 42.48 57.9417Z" fill="#FDFDFD"/>
<path d="M62.8738 79.4706C63.7499 81.4432 66.1132 82.2343 66.8569 84.3171C64.6565 84.1268 63.6684 82.2743 62.2626 81.0227C61.2949 80.1515 62.283 79.8411 62.8738 79.4706Z" fill="#FDFDFD"/>
<defs>
<filter id="filter0_f" x="0" y="0" width="147" height="145" filterUnits="userSpaceOnUse" color-interpolation-filters="sRGB">
<feFlood flood-opacity="0" result="BackgroundImageFix"/>
<feBlend mode="normal" in="SourceGraphic" in2="BackgroundImageFix" result="shape"/>
<feGaussianBlur stdDeviation="10" result="effect1_foregroundBlur"/>
</filter>
</defs>
</svg>
