<svg width="145" height="146" viewBox="0 0 145 146" fill="none" xmlns="http://www.w3.org/2000/svg">
<g filter="url(#filter0_f)">
<ellipse cx="72.8375" cy="73.175" rx="52.1625" ry="52.5" fill="#69BCB7"/>
</g>
<ellipse cx="72.8375" cy="73.175" rx="48.15" ry="48.4615" fill="white"/>
<path d="M59.2436 84.9556C61.5763 85.5223 60.3454 87.2823 60.5737 88.5749C54.211 89.5891 52.2258 88.4655 49.9725 82.6288C48.285 78.2438 46.4884 73.8986 44.9796 69.4539C40.4234 56.1 50.31 42.2688 64.2762 43.3625C69.428 43.7702 74.2819 43.7106 79.4237 43.3526C93.2311 42.3682 103.108 56.1795 98.5615 69.2948C96.745 74.5349 94.591 79.6657 92.4271 84.7766C90.9282 88.3164 88.6948 89.1815 83.2652 88.7241C82.7292 87.7397 83.0269 86.6956 83.0964 85.6715C83.8111 84.8959 84.7243 85.1743 85.5284 85.2041C87.5136 85.2737 88.7246 84.4286 89.3698 82.5393C91.5338 76.2452 95.0377 70.4184 95.8318 63.6569C96.4472 57.2136 93.5091 52.5402 88.3077 49.249C84.2379 46.6637 79.8208 45.8583 74.6591 48.1055C77.6171 50.6808 80.0987 52.9579 83.0269 54.688L83.1858 54.9465L83.4935 54.9266L83.4339 54.9962C83.0567 58.1185 82.1931 58.5957 79.6917 56.9054C77.766 55.5928 75.9396 54.1312 74.0635 52.7391C71.1948 49.8555 68.4056 46.9223 63.8693 46.8725C52.4243 46.7333 44.7116 57.671 48.6027 68.7081C50.1313 73.0335 51.9975 77.2495 53.4665 81.5947C54.479 84.5678 56.1764 85.7808 59.2436 84.9556Z" fill="#69BCB7"/>
<path d="M59.2436 84.9556C56.1863 85.7908 54.479 84.5678 53.4765 81.5947C52.0074 77.2495 50.1412 73.0434 48.6126 68.7081C44.7215 57.671 52.4342 46.7333 63.8792 46.8725C68.4254 46.9322 71.2048 49.8655 74.0735 52.7391C72.3562 52.7292 70.629 52.8883 68.9416 52.6695C63.1446 51.9238 59.8888 55.1255 57.0797 59.6199C52.0769 67.6342 54.0919 75.1614 58.1418 82.6785C58.5289 83.4243 59.2535 84.0109 59.2436 84.9556Z" fill="#F3F3F3"/>
<path d="M80.3866 96.4103C81.8358 100.785 80.2079 103.212 76.6146 104.554C74.6293 105.3 73.1602 107.905 70.7978 106.93C68.1673 105.847 65.7652 104.166 63.3431 102.615C61.9038 101.69 61.7252 100.318 63.5715 99.8905C69.1401 98.5879 74.7782 97.5438 80.3866 96.4103Z" fill="#69BCB7"/>
<path d="M83.0269 54.6781C80.0987 52.948 77.6171 50.671 74.6591 48.0956C79.8208 45.8484 84.228 46.6638 88.3077 49.2391C93.5091 52.5304 96.4472 57.2137 95.8318 63.647C93.241 60.9921 91.5337 57.4623 87.8709 55.8415C86.4019 55.1952 85.1313 54.181 83.4339 54.9864C83.4339 54.9864 83.4935 54.9168 83.4935 54.9068C83.4835 54.7278 83.4736 54.5489 83.4637 54.3699C83.3148 54.4892 83.1659 54.5886 83.0269 54.6781Z" fill="#F3F3F3"/>
<path d="M80.6447 86.9243C80.6447 88.8633 80.6447 90.5437 80.6447 92.6219C74.7783 93.8648 68.7927 95.1276 62.7278 96.4103C62.162 94.5807 62.4796 92.7909 62.4895 90.7227C68.485 89.4698 74.4705 88.217 80.6447 86.9243Z" fill="#69BCB7"/>
<path d="M80.5057 80.0833C81.1012 82.241 80.7935 83.3646 78.3914 83.7722C73.1702 84.6572 67.9986 85.8902 62.688 87.0038C62.1818 84.6671 62.4696 82.4697 62.5094 80.0833C68.4949 80.0833 74.3911 80.0833 80.5057 80.0833Z" fill="#69BCB7"/>
<path d="M83.0269 54.678C83.1758 54.5786 83.3148 54.4891 83.4637 54.3896C83.4736 54.5686 83.4836 54.7476 83.4935 54.9266L83.1858 54.9465L83.0269 54.678Z" fill="#FCFDFD"/>
<defs>
<filter id="filter0_f" x="0.675049" y="0.675049" width="144.325" height="145" filterUnits="userSpaceOnUse" color-interpolation-filters="sRGB">
<feFlood flood-opacity="0" result="BackgroundImageFix"/>
<feBlend mode="normal" in="SourceGraphic" in2="BackgroundImageFix" result="shape"/>
<feGaussianBlur stdDeviation="10" result="effect1_foregroundBlur"/>
</filter>
</defs>
</svg>
