<svg width="174" height="153" viewBox="0 0 174 153" fill="none" xmlns="http://www.w3.org/2000/svg">
<path d="M68.7888 91.6903C72.6794 92.6376 70.6265 95.5792 71.0072 97.7398C60.3951 99.435 57.0839 97.557 53.3258 87.8013C50.5113 80.472 47.5148 73.2093 44.9983 65.7803C37.3993 43.4602 53.8887 20.3424 77.1825 22.1705C85.7749 22.8519 93.8706 22.7522 102.446 22.1539C125.475 20.5086 141.948 43.5932 134.366 65.5144C131.336 74.2729 127.743 82.8486 124.134 91.3911C121.634 97.3077 117.909 98.7536 108.853 97.9891C107.959 96.3438 108.456 94.5987 108.572 92.8869C109.764 91.5906 111.287 92.0559 112.628 92.1058C115.939 92.2221 117.959 90.8094 119.035 87.6517C122.644 77.1315 128.488 67.3924 129.813 56.0911C130.839 45.3216 125.939 37.5104 117.264 32.0093C110.476 27.6882 103.109 26.342 94.4997 30.0981C99.4333 34.4025 103.572 38.2084 108.456 41.1002L108.721 41.5323L109.234 41.4991L109.135 41.6154C108.506 46.834 107.065 47.6317 102.893 44.8064C99.6817 42.6126 96.6354 40.1695 93.5064 37.8428C88.7218 33.0231 84.0697 28.1203 76.5037 28.0372C57.4151 27.8046 44.5513 46.0861 51.0411 64.5338C53.5907 71.7634 56.7032 78.8101 59.1534 86.0728C60.8421 91.0421 63.6731 93.0697 68.7888 91.6903Z" fill="#69BCB7"/>
<path d="M68.7888 91.6903C63.6897 93.0863 60.8421 91.0421 59.17 86.0729C56.7197 78.8101 53.6073 71.78 51.0577 64.5339C44.5679 46.0861 57.4316 27.8046 76.5203 28.0372C84.1028 28.1369 88.7384 33.0397 93.523 37.8428C90.6588 37.8262 87.7782 38.0921 84.9637 37.7265C75.2952 36.48 69.8649 41.8315 65.1797 49.3436C56.8356 62.7389 60.1964 75.32 66.9511 87.8844C67.5968 89.1309 68.8054 90.1114 68.7888 91.6903Z" fill="#F3F3F3"/>
<path d="M104.052 110.836C106.469 118.149 103.754 122.204 97.7612 124.448C94.4501 125.694 91.9998 130.048 88.0596 128.42C83.6723 126.608 79.6658 123.799 75.6263 121.207C73.2257 119.661 72.9277 117.368 76.007 116.653C85.2948 114.476 94.6984 112.731 104.052 110.836Z" fill="#69BCB7"/>
<path d="M108.456 41.0836C103.572 38.1918 99.4333 34.3859 94.4997 30.0814C103.109 26.3254 110.459 27.6882 117.264 31.9926C125.939 37.4937 130.839 45.3216 129.813 56.0744C125.492 51.637 122.644 45.737 116.535 43.0281C114.085 41.9478 111.966 40.2526 109.135 41.5988C109.135 41.5988 109.234 41.4824 109.234 41.4658C109.218 41.1667 109.201 40.8675 109.185 40.5684C108.936 40.7678 108.688 40.934 108.456 41.0836Z" fill="#F3F3F3"/>
<path d="M104.483 94.981C104.483 98.2218 104.483 101.03 104.483 104.504C94.6984 106.581 84.7153 108.692 74.5998 110.836C73.6561 107.778 74.1859 104.787 74.2025 101.33C84.2021 99.2356 94.1852 97.1415 104.483 94.981Z" fill="#69BCB7"/>
<path d="M104.251 83.5466C105.244 87.1531 104.731 89.0311 100.725 89.7125C92.0164 91.1916 83.3909 93.2525 74.5336 95.1139C73.6893 91.2083 74.1694 87.5353 74.2356 83.5466C84.2187 83.5466 94.0528 83.5466 104.251 83.5466Z" fill="#69BCB7"/>
<path d="M108.456 41.0836C108.704 40.9175 108.936 40.7679 109.185 40.6017C109.201 40.9008 109.218 41.2 109.234 41.4991L108.721 41.5324L108.456 41.0836Z" fill="#FCFDFD"/>
</svg>
