<svg width="147" height="145" viewBox="0 0 147 145" fill="none" xmlns="http://www.w3.org/2000/svg">
<g filter="url(#filter0_f)">
<ellipse cx="73.5" cy="72.5" rx="53.5" ry="52.5" fill="#69BCB7"/>
</g>
<ellipse cx="73.5001" cy="72.5" rx="49.3846" ry="48.4615" fill="white"/>
<path d="M51.4008 86.6758C53.2814 84.7645 55.0367 82.9874 56.7919 81.2102C57.0769 80.9308 57.5898 80.6401 57.5898 80.3495C57.624 75.7892 61.5904 73.9226 64.2233 71.2736C74.3901 61.0465 84.7507 50.987 95.0315 40.8604C95.818 40.0892 96.5474 39.2062 97.6758 38.9491C99.1005 38.6138 100.286 39.1056 101.084 40.3127C102.064 41.7769 101.768 43.1629 100.582 44.3589C97.4707 47.4773 94.3249 50.5734 91.1791 53.6583C82.2546 62.4324 73.3187 71.2177 64.3829 80.003C63.3115 81.0649 62.3199 82.272 60.5418 81.9591C59.5274 81.7802 59.1171 82.585 58.57 83.0991C57.0427 84.541 55.504 85.9829 54.0907 87.5365C52.5292 89.2578 51.0703 90.3979 48.9047 88.2965C48.0612 87.4806 46.8417 87.4694 45.7931 88.1065C44.5963 88.833 44.3684 90.0067 44.6875 91.2473C45.1548 93.0692 45.7475 94.8576 46.2034 96.6795C46.42 97.5178 46.7505 98.5908 45.5651 98.9596C44.4139 99.3173 44.0036 98.4343 43.7415 97.4954C43.3426 96.0647 42.8866 94.6452 42.4649 93.2257C41.7127 90.6214 41.4619 88.0395 43.9922 86.184C46.3516 84.4739 48.7565 85.0663 51.4008 86.6758Z" fill="#69BCB7"/>
<path d="M94.8262 53.1553C95.5899 52.3729 96.3421 51.5905 97.3565 50.551C102.064 56.2514 103.671 62.5107 101.255 69.1946C98.0632 78.0582 93.5383 86.3852 89.3553 94.8352C88.0787 97.4059 85.4914 98.2666 82.6534 97.8866C79.9065 97.5177 78.0487 95.9417 77.285 93.2927C76.4074 90.2413 75.6779 87.1564 74.7547 84.1274C74.4584 83.155 74.5723 81.892 73.0108 81.1543C71.267 84.9992 70.6971 89.1124 69.4547 93.0133C68.3492 96.467 65.7505 98.2554 62.1716 97.9201C59.1967 97.6407 54.5236 92.7339 55.0023 90.0401C55.2303 88.7548 56.5069 87.7935 57.829 87.19C58.661 88.9783 59.4475 90.789 60.3251 92.555C60.9064 93.7063 61.8866 94.3993 63.2543 94.2092C64.5423 94.0304 65.4997 93.3486 65.7619 91.9962C66.081 90.3643 66.9586 88.8554 66.8674 87.1229C67.4487 85.3457 68.144 83.5909 68.5885 81.7802C69.204 79.2877 70.5489 77.6446 73.273 77.6111C75.9971 77.5887 77.4446 79.1535 78.0259 81.6796C78.3108 82.9203 78.7781 84.1274 79.1657 85.3457C79.2568 85.6475 79.348 85.9381 79.4278 86.2399C79.5874 86.7205 79.7355 87.2123 79.8951 87.6929C79.8039 89.0901 80.4878 90.3196 80.7613 91.6385C81.0463 93.0245 81.7871 93.9969 83.2347 94.2092C84.6594 94.4104 85.7536 93.8628 86.2779 92.4656C89.8568 84.9769 93.4471 77.4993 96.9918 69.9994C97.801 68.3005 98.3025 66.4897 98.2 64.5673C99.1004 60.197 97.026 56.6538 94.8262 53.1553Z" fill="#69BCB7"/>
<path d="M76.2938 53.5911C74.2991 53.4458 72.3045 53.2334 70.3099 53.1775C62.2403 52.9205 59.4022 57.0001 58.4676 64.3883C58.2739 65.9531 58.1713 67.5962 58.4448 69.1274C59.2427 73.5536 56.0057 76.4821 54.467 80.0364C52.4952 76.2473 50.455 72.4806 49.1214 68.4233C45.6109 57.7714 53.7603 47.0524 65.1467 47.1754C70.1504 47.2313 73.0796 50.618 76.2938 53.5911Z" fill="#F3F3F3"/>
<path d="M76.2935 53.5912C73.0793 50.6181 70.1501 47.2314 65.1578 47.1755C53.7715 47.0414 45.622 57.7603 49.1326 68.4234C50.4661 72.4807 52.5063 76.2475 54.4781 80.0365C54.0678 81.3666 52.9052 82.0261 51.6173 83.1326C48.1979 75.1744 42.6928 68.0769 44.9952 58.7327C47.8902 46.9184 61.0091 40.3574 72.1675 45.3536C73.2959 45.8566 73.9683 45.5213 74.8688 45.0518C79.0518 42.917 83.3487 43.0846 87.9876 44.4483C87.053 45.9013 86.0728 46.952 84.6937 47.6338C81.9468 46.8849 79.2911 46.8402 76.5442 48.6509C77.9234 49.6904 78.7896 50.9087 80.2827 51.3893C79.6672 53.3789 78.9834 55.2455 76.2935 53.5912Z" fill="#69BCB7"/>
<path d="M66.8563 87.1341C66.9475 88.8554 66.0699 90.3643 65.7507 92.0074C65.4886 93.3598 64.5426 94.0416 63.2432 94.2205C61.8755 94.4105 60.8953 93.7175 60.314 92.5663C59.4364 90.8003 58.6385 88.9895 57.8179 87.2012C58.4447 86.4635 59.0716 85.7258 60.0632 84.541C61.5221 88.0283 63.7105 89.1907 66.8563 87.1341Z" fill="#F3F3F3"/>
<path d="M94.8267 53.1553C97.0264 56.6649 99.1008 60.2081 98.189 64.5896C96.012 61.9517 94.1998 59.0121 91.168 56.9779C92.2622 55.3125 93.5273 54.2171 94.8267 53.1553Z" fill="#F3F3F3"/>
<path d="M80.2714 51.3894C78.7897 50.9088 77.9121 49.6904 76.533 48.651C79.2798 46.8402 81.9355 46.8849 84.6824 47.6338C83.4856 49.1875 82.4712 50.9535 80.2714 51.3894Z" fill="#F3F3F3"/>
<path d="M86.2668 92.4768C85.7425 93.8851 84.6483 94.4216 83.2236 94.2204C81.776 94.0081 81.0352 93.0356 80.7502 91.6497C80.4767 90.3308 79.7814 89.1013 79.884 87.7041C81.6849 88.0618 81.8786 89.9954 83.1438 90.9231C84.124 91.6385 85.0244 92.365 86.2668 92.4768Z" fill="#F3F3F3"/>
<path d="M79.4282 86.251C79.337 85.9492 79.2458 85.6586 79.166 85.3568C79.2458 85.6586 79.337 85.9604 79.4282 86.251Z" fill="#C2C8CC"/>
<defs>
<filter id="filter0_f" x="0" y="0" width="147" height="145" filterUnits="userSpaceOnUse" color-interpolation-filters="sRGB">
<feFlood flood-opacity="0" result="BackgroundImageFix"/>
<feBlend mode="normal" in="SourceGraphic" in2="BackgroundImageFix" result="shape"/>
<feGaussianBlur stdDeviation="10" result="effect1_foregroundBlur"/>
</filter>
</defs>
</svg>
