<svg width="20" height="20" viewBox="0 0 20 20" fill="none" xmlns="http://www.w3.org/2000/svg">
<path d="M11.6667 1H8.33335C8.14937 1 8.00003 1.14934 8.00003 1.33332C8.00003 1.5173 8.14937 1.66664 8.33335 1.66664H11.6667C11.8507 1.66664 12 1.5173 12 1.33332C12 1.14934 11.8507 1 11.6667 1Z" fill="#69BCB7"/>
<path d="M14 1H13.6667C13.4827 1 13.3334 1.14934 13.3334 1.33332C13.3334 1.5173 13.4827 1.66664 13.6667 1.66664H14C14.184 1.66664 14.3333 1.5173 14.3333 1.33332C14.3333 1.14934 14.184 1 14 1Z" fill="#69BCB7"/>
<path d="M10.414 17H9.58634C9.07934 17 8.66669 17.4127 8.66669 17.9196V18.0807C8.66669 18.5877 9.07934 19 9.58602 19H10.4137C10.9207 19 11.3333 18.5877 11.3333 18.0807V17.9196C11.3333 17.4127 10.9207 17 10.414 17ZM10.6667 18.0807C10.6667 18.22 10.5534 18.3333 10.414 18.3333H9.58634C9.44669 18.3333 9.33333 18.22 9.33333 18.0807V17.9196C9.33333 17.78 9.44665 17.6666 9.58634 17.6666H10.4137C10.5534 17.6666 10.6667 17.78 10.6667 17.9196V18.0807Z" fill="#69BCB7"/>
<path d="M14.462 0H5.53831C4.87398 0 4.33331 0.540664 4.33331 1.205V18.795C4.33331 19.4593 4.87398 20 5.53831 20H14.4616C15.126 20 15.6666 19.4593 15.6666 18.7954V1.205C15.6667 0.540664 15.126 0 14.462 0ZM15 18.795C15 19.0917 14.7587 19.3333 14.462 19.3333H5.53831C5.24132 19.3333 4.99999 19.0916 4.99999 18.7953V1.205C4.99999 0.90832 5.24132 0.66668 5.53831 0.66668H14.4616C14.7586 0.66668 14.9999 0.908359 14.9999 1.205V18.795H15Z" fill="#69BCB7"/>
<path d="M15.3333 1.99976H4.66669C4.48271 1.99976 4.33337 2.14909 4.33337 2.33308V16.3331C4.33337 16.5171 4.48271 16.6664 4.66669 16.6664H15.3334C15.5174 16.6664 15.6667 16.5171 15.6667 16.3331V2.33308C15.6667 2.14909 15.5174 1.99976 15.3333 1.99976ZM15 15.9998H5.00001V2.66644H15V15.9998Z" fill="#69BCB7"/>
</svg>
