<svg width="136" height="119" viewBox="0 0 136 119" fill="none" xmlns="http://www.w3.org/2000/svg">
<path d="M70.808 34.9788C70.2516 36.6592 68.9317 36.2456 67.7412 36.0775C48.2664 33.5052 44.4879 43.1353 43.8409 56.4882C43.4915 63.8433 43.1163 71.2889 44.6044 78.644C45.329 82.1987 43.7503 84.254 40.1142 84.6677C35.3263 76.4077 30.9655 67.8634 28.4164 58.6857C25.1813 47.052 30.9008 34.9271 41.4988 29.1361C52.4331 23.1641 61.4394 24.9609 70.808 34.9788Z" fill="#F3F3F3"/>
<path d="M70.808 34.9788C61.4394 24.9609 52.4331 23.1641 41.4988 29.1361C30.9009 34.9142 25.1684 47.052 28.4164 58.6728C30.9785 67.8505 35.3264 76.3949 40.1142 84.6548C39.7777 87.5245 37.0086 87.6925 35.0028 89.5798C30.6291 78.6828 24.0944 69.1432 21.9075 57.8197C17.9608 37.3314 36.3745 17.4507 57.0786 19.6352C61.1547 20.0618 64.6356 23.5519 68.3106 23.009C71.895 22.479 75.2723 19.9196 79.659 19.5965C80.4354 21.781 82.1694 23.4744 83.8904 25.1548C80.5907 26.7318 76.2946 24.9868 73.1631 28.3347C77.5239 32.2772 81.82 35.9612 86.569 39.0765C85.9349 41.3774 81.2765 42.8898 79.1673 41.3644C76.3463 39.3092 73.6031 37.1117 70.808 34.9788Z" fill="#69BCB7"/>
<path d="M24.7026 80.0142C25.8801 84.073 28.8304 86.878 28.3258 91.3635C28.0023 94.2073 30.862 94.8536 33.4371 94.0522C36.2968 93.1732 38.6261 91.3118 40.9682 89.5667C54.4129 79.5488 66.7448 68.2382 78.8955 56.7338C84.1492 51.7571 86.2843 52.2483 89.3252 59.5517C74.3277 73.6802 59.5372 88.2353 42.1069 99.7139C40.3083 100.903 38.3802 101.989 36.3745 102.713C31.4961 104.471 26.8118 103.863 22.9298 100.321C19.216 96.9348 18.8278 92.6044 20.2641 87.938C21.1311 85.0942 22.2957 82.496 24.7026 80.0142Z" fill="#69BCB7"/>
<path d="M112.876 37.2667C116.836 43.4067 120.252 48.7324 123.694 54.0322C125.557 56.9019 124.742 58.9054 121.598 60.4824C116.344 54.7431 111.142 49.0556 105.669 43.0836C103.055 45.1259 100.583 47.1425 98.0209 49.0297C95.42 50.9557 96.9599 53.2695 97.4645 55.3507C98.1374 58.1557 98.008 60.2756 94.126 60.8961C92.7155 53.9676 88.4194 49.3012 81.0177 47.3364C83.0105 45.2164 84.8221 43.7558 87.2289 45.0872C91.3309 47.3493 93.7378 45.3974 95.9635 42.2046C97.1928 40.4337 98.6938 38.8567 100.35 36.8531C94.5789 31.4757 88.8723 26.1501 83.2693 20.9149C85.9996 17.0111 88.4971 17.218 91.1368 18.9242C96.5846 22.4531 102.006 26.0337 107.597 29.7048C110.418 27.1971 113.329 24.6765 116.163 22.0653C118.453 19.9454 120.795 19.661 123.163 21.781C125.79 24.1206 124.289 26.3957 122.542 28.1924C119.553 31.3206 116.253 34.1515 112.876 37.2667Z" fill="#69BCB7"/>
<path d="M108.024 51.3823C114.494 56.7338 114.934 57.1604 111.776 64.4509C106.083 77.597 100.027 90.588 93.8801 103.54C91.8485 107.832 87.9406 109.771 83.1528 109.241C78.3391 108.711 75.2723 105.88 73.9653 101.278C72.6972 96.8314 71.9726 92.1908 70.3421 87.8864C68.7634 83.6982 69.8892 81.1776 74.0947 79.1481C75.5052 83.4914 76.9027 87.7829 78.2873 92.0616C78.0156 94.5951 79.2708 96.8055 79.7884 99.184C80.2542 101.343 81.3929 102.868 83.6704 103.127C85.8314 103.372 87.6042 102.739 88.3547 100.425C94.8118 87.5244 100.907 74.4559 106.471 61.1417C107.221 59.345 107.286 57.2767 107.661 55.3249C107.778 54.0193 107.907 52.7008 108.024 51.3823Z" fill="#69BCB7"/>
<path d="M56.5739 94.8278C58.2044 91.0662 61.9182 89.5409 65.5673 86.193C63.8333 92.5528 62.8369 97.9948 60.87 103.049C57.8291 110.869 47.697 111.438 42.1975 104.264C43.1939 102.635 45.109 102.183 46.5195 101.084C52.2131 104.561 54.3871 103.837 56.0175 97.8784C56.2892 96.8831 56.3928 95.849 56.5739 94.8278Z" fill="#69BCB7"/>
<path d="M86.5949 39.0635C81.8329 35.9483 77.5498 32.2643 73.189 28.3217C76.3075 24.9609 80.6166 26.7059 83.9163 25.1418C86.996 28.1537 90.0757 31.1526 93.1425 34.1644C94.3848 35.3795 95.5106 36.5041 94.333 38.5335C93.0002 40.8344 91.4603 39.335 89.9205 39.1152C88.8206 38.9601 87.7077 37.5641 86.5949 39.0635Z" fill="#F3F3F3"/>
<path d="M88.3547 100.438C87.6042 102.739 85.8314 103.385 83.6704 103.139C81.393 102.868 80.2542 101.356 79.7884 99.1969C79.2708 96.8314 78.0156 94.621 78.2873 92.0745C80.513 92.6044 80.9659 94.7631 82.1305 96.2626C83.7481 98.3438 85.5985 100.05 88.3547 100.438Z" fill="#F3F3F3"/>
<path d="M56.5739 94.8278C56.3928 95.8489 56.2893 96.8831 56.0175 97.8784C54.3871 103.837 52.2131 104.561 46.5195 101.084C50.0392 99.2615 52.3167 95.4741 56.5739 94.8278Z" fill="#F3F3F3"/>
</svg>
